<?xml version="1.0" encoding="UTF-8"?>
<svg width="25pt" height="25pt" version="1.1" viewBox="0 0 25 25" xmlns="http://www.w3.org/2000/svg">
	<path d="m21.336 3.6523c-2.3594-2.3555-5.4961-3.6523-8.8359-3.6523s-6.4766 1.2969-8.8359 3.6523c-2.3633 2.3555-3.6641 5.4922-3.6641 8.8242v0.046876c0 3.332 1.3008 6.4648 3.6641 8.8242 2.3594 2.3555 5.4961 3.6523 8.8359 3.6523s6.4766-1.2969 8.8359-3.6523c2.3633-2.3594 3.6641-5.4922 3.6641-8.8242v-0.046876c0-3.332-1.3008-6.4688-3.6641-8.8242zm1.7109 8.8711c0 5.8047-4.7305 10.523-10.547 10.523s-10.547-4.7188-10.547-10.523v-0.046876c0-5.8047 4.7305-10.523 10.547-10.523s10.547 4.7188 10.547 10.523z"/>
	<path d="m12.5 6.3477c-3.3672 0-6.1016 2.7383-6.1016 6.1055 0 3.3633 2.7344 6.1016 6.1016 6.1016s6.1016-2.7383 6.1016-6.1016c0-3.3672-2.7344-6.1055-6.1016-6.1055zm0 10.254c-2.2891 0-4.1484-1.8633-4.1484-4.1484 0-2.2891 1.8594-4.1523 4.1484-4.1523s4.1484 1.8633 4.1484 4.1523c0 2.2852-1.8594 4.1484-4.1484 4.1484z"/>
</svg>
