<?xml version="1.0" encoding="UTF-8"?>
<svg width="25pt" height="25pt" version="1.1" viewBox="0 0 25 25" xmlns="http://www.w3.org/2000/svg">
    <path d="m12.531 14.168h0.003906c0.19141 0 0.375-0.054688 0.52734-0.15625l0.039062-0.023438c0.011719-0.007812 0.019532-0.011719 0.027344-0.019531l0.47656-0.39453 11.367-9.3789c-0.023437-0.03125-0.0625-0.054687-0.10547-0.054687h-24.734c-0.03125 0-0.058593 0.011719-0.082031 0.03125l11.891 9.8008c0.15234 0.125 0.36328 0.19531 0.58984 0.19531zm-12.531-8.6992v13.906l8.5195-6.8828zm16.488 7.0703 8.5117 6.8398v-13.863zm-2.7031 2.2305c-0.33984 0.27734-0.78516 0.43359-1.25 0.43359-0.46875 0-0.91016-0.15234-1.25-0.42969l-1.9492-1.6094-9.3359 7.5391v0.023437c0 0.070313 0.0625 0.13281 0.13281 0.13281h24.734c0.070312 0 0.13281-0.0625 0.13281-0.13281v-0.023437l-9.3281-7.4922z"/>
</svg>
