<?xml version="1.0" encoding="UTF-8"?>
<svg width="25pt" height="25pt" version="1.1" viewBox="0 0 25 25" xmlns="http://www.w3.org/2000/svg">
	<path d="m7.8516 8.2773-5.7734-5.7773c0.74609-0.74609 1.4922-1.4922 2.2383-2.2383 0.34375-0.34375 0.90234-0.35156 1.2461-0.011719l4.5 4.5039c0.34375 0.34375 0.34375 0.91016-0.007812 1.2539l-0.98438 0.98438-0.91406 0.91797c-0.11328 0.11328-0.21484 0.23438-0.30469 0.36719zm4.75 9.4062c-0.94531-0.8125-1.8516-1.6758-2.7305-2.5547-0.87891-0.88281-1.7383-1.7891-2.5547-2.7383-0.66797-0.76953-0.79688-1.8867-0.44922-2.8242l-5.9258-5.9258c-1.3789 1.418-1.2031 4.9336 0.30859 8.0195 0.64844 1.3359 1.4922 2.543 2.3594 3.6875 0.86719 1.1406 1.8203 2.2148 2.8242 3.2266 1.0039 1.0078 2.0742 1.9648 3.2148 2.832 1.1484 0.87109 2.3555 1.707 3.6836 2.3555 3.0938 1.5078 6.6094 1.6758 8.0273 0.29297l-5.9297-5.9258c-0.9375 0.34766-2.0547 0.21875-2.8281-0.44531zm12.141 1.75-4.5-4.5c-0.34375-0.33984-0.91016-0.33984-1.2539 0.003906h-0.003906l-0.98828 0.98828-0.91016 0.91406c-0.11328 0.11328-0.23438 0.21484-0.36719 0.30469l5.7734 5.7734c0.74609-0.74609 1.4883-1.4922 2.2383-2.2344 0.34766-0.34766 0.35547-0.90625 0.011719-1.25z"/>
</svg>
