<?xml version="1.0" encoding="UTF-8"?>
<svg width="25pt" height="25pt" version="1.1" viewBox="0 0 25 25" xmlns="http://www.w3.org/2000/svg">
	<path d="m24.969 11.668c-0.41016-6.2422-5.3945-11.23-11.637-11.641v-0.027344h-1.6641v0.027344c-6.2422 0.41016-11.23 5.3984-11.641 11.641h-0.027344v1.6641h0.027344c0.41016 6.2422 5.3984 11.227 11.641 11.637v0.03125h1.6641v-0.03125c6.2422-0.41016 11.227-5.3945 11.637-11.637h0.03125v-1.6641zm-17.145-8.9414c-0.80469 1.0703-1.4727 2.4102-1.9609 3.9414h-2.4961c1.0859-1.6953 2.6328-3.0664 4.457-3.9414zm-5.3281 5.6055h2.9297c-0.22266 1.0547-0.36328 2.1719-0.41016 3.3359h-3.3164c0.085937-1.1758 0.36328-2.2969 0.79688-3.3359zm-0.79688 5h3.3164c0.046875 1.1641 0.1875 2.2812 0.41016 3.3359h-2.9297c-0.43359-1.0391-0.71094-2.1602-0.79688-3.3359zm1.668 5h2.4961c0.48828 1.5312 1.1562 2.8711 1.9609 3.9414-1.8242-0.875-3.3711-2.2422-4.457-3.9414zm8.3008 4.8945c-1.7148-0.45703-3.1914-2.2969-4.0859-4.8945h4.0859zm0-6.5586h-4.5547c-0.23438-1.0391-0.38281-2.1602-0.42969-3.3359h4.9844zm0-5h-4.9844c0.046875-1.1758 0.19531-2.2969 0.42969-3.3359h4.5547zm0-5h-4.0859c0.89453-2.5977 2.3711-4.4375 4.0859-4.8945zm9.9648 0h-2.4961c-0.48828-1.5312-1.1523-2.8711-1.9609-3.9414 1.8242 0.875 3.3711 2.2461 4.457 3.9414zm-8.3008-4.8945c1.7148 0.45703 3.1914 2.2969 4.0859 4.8945h-4.0859zm0 6.5586h4.5508c0.23828 1.0391 0.38281 2.1602 0.43359 3.3359h-4.9844zm0 5h4.9844c-0.046875 1.1758-0.19531 2.2969-0.43359 3.3359h-4.5508zm0 9.8945v-4.8945h4.0859c-0.89453 2.5977-2.3711 4.4375-4.0859 4.8945zm3.8438-0.95312c0.80469-1.0703 1.4727-2.4102 1.9609-3.9414h2.4961c-1.0859 1.6992-2.6328 3.0664-4.457 3.9414zm5.3281-5.6055h-2.9297c0.22266-1.0547 0.36328-2.1719 0.41016-3.3359h3.3164c-0.085937 1.1758-0.36328 2.2969-0.79688 3.3359zm-2.5195-5c-0.046875-1.1641-0.1875-2.2812-0.41016-3.3359h2.9297c0.43359 1.0391 0.71094 2.1602 0.79688 3.3359z" fill="#030103"/>
</svg>
